<svg width="38" height="33" viewBox="0 0 38 33" fill="none" xmlns="http://www.w3.org/2000/svg">
<path fill-rule="evenodd" clip-rule="evenodd" d="M38 8C38 6.34315 36.6569 5 35 5H3C1.34315 5 0 6.34315 0 8V13L17.9629 19.6179C18.6323 19.8645 19.3677 19.8645 20.0371 19.6179L38 13V8ZM0 16V30C0 31.6569 1.34315 33 3 33H35C36.6569 33 38 31.6569 38 30V16L19.9711 22.1678C19.3416 22.3831 18.6584 22.3831 18.0289 22.1678L0 16Z" fill="#1850A8"/>
<path d="M12 3C12 1.34315 13.3431 0 15 0H23C24.6569 0 26 1.34315 26 3V5H12V3Z" fill="#1850A8"/>
<path d="M15 4C15 2.89543 15.8954 2 17 2H21C22.1046 2 23 2.89543 23 4V5H15V4Z" fill="white"/>
</svg>
